<svg width="22" height="21" viewBox="0 0 22 21" fill="none" xmlns="http://www.w3.org/2000/svg">
<g id="User">
<path id="Vector" d="M10.9999 1.41241C8.65953 1.41503 6.41572 2.34592 4.76079 4.00084C3.10587 5.65577 2.17498 7.89958 2.17236 10.24C2.17628 12.58 3.10759 14.8231 4.76223 16.4777C6.41688 18.1324 8.65993 19.0637 10.9999 19.0676C13.3412 19.0676 15.5865 18.1375 17.242 16.482C18.8975 14.8266 19.8275 12.5812 19.8275 10.24C19.8275 7.89878 18.8975 5.65345 17.242 3.99795C15.5865 2.34246 13.3412 1.41241 10.9999 1.41241ZM16.3692 15.3339C15.8735 14.3339 15.1081 13.4924 14.1595 12.9042C13.2109 12.3161 12.1168 12.0047 11.0007 12.0053C9.88453 12.0059 8.79077 12.3184 7.84279 12.9075C6.8948 13.4967 6.13032 14.339 5.6356 15.3395C4.31564 13.9705 3.58014 12.1417 3.58478 10.24C3.58478 8.27338 4.36602 6.3873 5.75663 4.99668C7.14725 3.60607 9.03332 2.82483 10.9999 2.82483C12.9666 2.82483 14.8527 3.60607 16.2433 4.99668C17.6339 6.3873 18.4151 8.27338 18.4151 10.24C18.4195 12.139 17.686 13.9655 16.3692 15.3339ZM10.9999 4.94345C10.3714 4.94345 9.75699 5.12983 9.23439 5.47903C8.71178 5.82822 8.30445 6.32455 8.06392 6.90524C7.82339 7.48593 7.76046 8.12491 7.88308 8.74136C8.0057 9.35782 8.30837 9.92408 8.75281 10.3685C9.19726 10.813 9.76351 11.1156 10.38 11.2382C10.9964 11.3609 11.6354 11.2979 12.2161 11.0574C12.7968 10.8169 13.2931 10.4096 13.6423 9.88694C13.9915 9.36434 14.1779 8.74992 14.1779 8.12138C14.1779 7.70405 14.0957 7.2908 13.936 6.90524C13.7763 6.51967 13.5422 6.16934 13.2471 5.87424C12.952 5.57915 12.6017 5.34506 12.2161 5.18535C11.8305 5.02565 11.4173 4.94345 10.9999 4.94345Z" fill="black"/>
</g>
</svg>
